<?xml version="1.0" encoding="utf-8"?>
<!-- Generator: Adobe Illustrator 19.0.0, SVG Export Plug-In . SVG Version: 6.00 Build 0)  -->
<svg version="1.1" id="layer" xmlns="http://www.w3.org/2000/svg" xmlns:xlink="http://www.w3.org/1999/xlink" x="0px" y="0px"
	 viewBox="-153 -46 652 652" style="enable-background:new -153 -46 652 652;" xml:space="preserve">
<style type="text/css">
	.st0{fill:#0070B9;}
	.st1{fill:#00AFEA;}
	.st2{fill:#9BC735;}
	.st3{fill:#FFFFFF;}
</style>
<path class="st0" d="M-110.4,361h-7.7v-4.9h20.9v4.9h-7.7v21.4h-5.6V361z M-95.6,382.4h5.1v-10c0-3.9,1.2-5.4,3.9-5.4
	c2.4,0,3.3,1.5,3.3,4.7v10.7h5.1v-11.7c0-4.7-1.4-7.8-6.8-7.8c-1.9,0-4.1,1-5.4,3.2h-0.1v-9.9h-5.1V382.4z M-71.1,370.9
	c0.1-1.5,1-4,4.2-4c2.5,0,3.6,1.4,4,4H-71.1z M-57.8,374.2c0.4-5.9-2.7-11.3-9-11.3c-5.6,0-9.4,4.3-9.4,10c0,5.9,3.6,10,9.4,10
	c4.2,0,7.2-1.9,8.7-6.4h-4.5c-0.3,1.2-2,2.5-4,2.5c-2.8,0-4.4-1.5-4.5-4.8H-57.8z M-25.7,356.1h-5.8l-5.8,18.5h-0.1l-5.7-18.5h-5.8
	l8.3,26.3h6.3L-25.7,356.1z M-15.4,375.1c0,1.1-0.1,4.4-4.1,4.4c-1.6,0-3.1-0.5-3.1-2.4c0-1.9,1.4-2.5,3-2.8
	c1.6-0.3,3.4-0.3,4.2-1.1V375.1z M-22.1,369.2c0.2-2.1,1.4-2.9,3.4-2.9c1.8,0,3.3,0.3,3.3,2.6c0,2.1-2.9,2-6,2.5
	c-3.1,0.4-6.3,1.5-6.3,5.8c0,3.9,2.8,5.7,6.3,5.7c2.3,0,4.6-0.6,6.2-2.4c0,0.6,0.2,1.3,0.4,1.8h5.1c-0.5-0.8-0.6-2.5-0.6-4.2v-9.9
	c0-4.6-4.4-5.4-8.1-5.4c-4.1,0-8.4,1.5-8.7,6.4H-22.1z M10.3,370.1c-0.3-4.9-4.3-7.2-8.7-7.2c-6,0-9.4,4.4-9.4,10.3
	c0,5.7,3.8,9.7,9.3,9.7c4.9,0,8.3-2.8,8.9-7.8H5.5c-0.3,2.3-1.7,3.9-4,3.9c-3.2,0-4.2-3.3-4.2-6c0-2.8,1.1-6.2,4.3-6.2
	c2.1,0,3.4,1.1,3.8,3.3H10.3z M29.9,370.1c-0.3-4.9-4.3-7.2-8.7-7.2c-6,0-9.4,4.4-9.4,10.3c0,5.7,3.8,9.7,9.3,9.7
	c4.9,0,8.3-2.8,8.9-7.8h-4.9c-0.3,2.3-1.7,3.9-4,3.9c-3.2,0-4.2-3.3-4.2-6c0-2.8,1.1-6.2,4.3-6.2c2.1,0,3.4,1.1,3.8,3.3H29.9z
	 M32.1,382.4h5.1v-19h-5.1V382.4z M37.2,356.1h-5.1v4.3h5.1V356.1z M40.3,382.4h5.1v-10c0-3.9,1.2-5.4,3.9-5.4
	c2.4,0,3.3,1.5,3.3,4.7v10.7h5.1v-11.7c0-4.7-1.4-7.8-6.8-7.8c-2.1,0-4.4,1-5.7,3.2h-0.1v-2.6h-4.8V382.4z M64.8,370.9
	c0.1-1.5,1-4,4.2-4c2.5,0,3.6,1.4,4,4H64.8z M78.2,374.2c0.4-5.9-2.7-11.3-9-11.3c-5.6,0-9.4,4.3-9.4,10c0,5.9,3.6,10,9.4,10
	c4.2,0,7.2-1.9,8.7-6.4h-4.5c-0.3,1.2-2,2.5-4,2.5c-2.8,0-4.4-1.5-4.5-4.8H78.2z M99.6,362.6L99.6,362.6l3.3,9.6h-6.6L99.6,362.6z
	 M87.1,382.4h5.7l2-5.8h9.6l1.9,5.8h5.8l-9.5-26.3h-5.8L87.1,382.4z M113.1,382.4h5.1v-26.3h-5.1V382.4z M121.4,382.4h5.1v-26.3
	h-5.1V382.4z M129.7,382.4h5.1v-19h-5.1V382.4z M134.8,356.1h-5.1v4.3h5.1V356.1z M149.5,375.1c0,1.1-0.1,4.4-4.1,4.4
	c-1.6,0-3.1-0.5-3.1-2.4c0-1.9,1.4-2.5,3-2.8c1.6-0.3,3.4-0.3,4.2-1.1V375.1z M142.8,369.2c0.2-2.1,1.4-2.9,3.4-2.9
	c1.8,0,3.3,0.3,3.3,2.6c0,2.1-2.9,2-6,2.5c-3.1,0.4-6.3,1.5-6.3,5.8c0,3.9,2.8,5.7,6.3,5.7c2.3,0,4.6-0.6,6.2-2.4
	c0,0.6,0.2,1.3,0.4,1.8h5.2c-0.5-0.8-0.6-2.5-0.6-4.2v-9.9c0-4.6-4.4-5.4-8.1-5.4c-4.1,0-8.4,1.5-8.7,6.4H142.8z M157.6,382.4h5.1
	v-10c0-3.9,1.2-5.4,3.9-5.4c2.4,0,3.3,1.5,3.3,4.7v10.7h5.1v-11.7c0-4.7-1.4-7.8-6.8-7.8c-2.1,0-4.4,1-5.7,3.2h-0.1v-2.6h-4.8V382.4
	z M195.5,370.1c-0.3-4.9-4.3-7.2-8.7-7.2c-6,0-9.4,4.4-9.4,10.3c0,5.7,3.8,9.7,9.3,9.7c4.9,0,8.3-2.8,8.9-7.8h-4.9
	c-0.3,2.3-1.7,3.9-4,3.9c-3.2,0-4.2-3.3-4.2-6c0-2.8,1.1-6.2,4.3-6.2c2.1,0,3.4,1.1,3.8,3.3H195.5z M201.7,370.9c0.1-1.5,1-4,4.2-4
	c2.5,0,3.6,1.4,4,4H201.7z M215.1,374.2c0.4-5.9-2.7-11.3-9-11.3c-5.6,0-9.4,4.3-9.4,10c0,5.9,3.6,10,9.4,10c4.2,0,7.2-1.9,8.7-6.4
	h-4.5c-0.3,1.2-2,2.5-4,2.5c-2.8,0-4.4-1.5-4.5-4.8H215.1z M-32,339.1h18.4v-73.2h-55.3v22.2h29.1c-1.7,18.8-12.5,29.2-31.3,29.2
	c-26,0-35.8-22.8-35.8-45.3c0-23.7,9.8-46.5,35.8-46.5c13.6,0,24.5,7.8,27.8,22.8h27.7c-3.1-30.7-28.6-47.8-55.5-47.8
	c-40.7,0-64.7,31.3-64.7,71.5c0,39.1,24,70.4,64.7,70.4c12.7,0,26-5.1,36.1-18.6L-32,339.1z M60.6,301.2c0,5.9-0.7,22.6-21.2,22.6
	c-8.5,0-16-2.5-16-12.5c0-9.9,7.4-12.7,15.5-14.4c8.1-1.5,17.3-1.7,21.8-5.7V301.2z M26.3,271.2c0.9-10.6,7.4-14.8,17.3-14.8
	c9.2,0,17,1.7,17,13.3c0,11-14.9,10.4-31,12.9c-16.2,2.3-32.4,7.6-32.4,29.8c0,20.1,14.4,29.4,32.4,29.4c11.6,0,23.8-3.2,32.1-12.1
	c0.2,3.2,0.9,6.4,1.8,9.5h26.5c-2.4-4-3.3-12.9-3.3-21.8v-51c0-23.5-22.9-27.9-41.9-27.9c-21.4,0-43.3,7.6-44.8,32.8H26.3z
	 M183.1,241h-26L137,308h-0.4L116.6,241H89.1l32.6,98h29.1L183.1,241z M187.4,339.1h26.2v-98h-26.2V339.1z M213.5,203.7h-26.2v22.2
	h26.2V203.7z"/>
<path class="st1" d="M270,306c0-33.9,23.1-66.5,43.6-95.2c14.8-20.8,28.8-40.5,29-54.4c-57.6,4.9-102.9,54.5-102.9,115
	c0,48.6,29.2,90.2,70.6,107.2C286.2,363.9,270,336.9,270,306"/>
<path class="st2" d="M464.1,271.4c0-60.5-45.3-110.1-102.9-115c0.3,13.9,14.3,33.6,29,54.4c20.4,28.8,43.6,61.4,43.6,95.2
	c0,30.9-16.2,57.9-40.3,72.6C434.9,361.6,464.1,320,464.1,271.4"/>
<path class="st0" d="M351.9,382.4c41,0,74.3-34.2,74.3-76.4c0-56.5-72.6-113.1-72.6-150c-0.6,0-1.1,0-1.7,0c-0.6,0-1.1,0-1.7,0
	c-0.1,36.9-72.6,93.4-72.6,150C277.6,348.2,310.9,382.4,351.9,382.4"/>
<path class="st3" d="M390.3,210.8c-14.8-20.8-28.8-40.5-29-54.4c-1.3-0.1-2.5-0.2-3.8-0.3c-1.3-0.1-2.6-0.1-3.8-0.1
	c0.1,36.9,72.6,93.4,72.6,150c0,42.2-33.3,76.4-74.3,76.4c-41,0-74.3-34.2-74.3-76.4c0-56.5,72.6-113.1,72.6-150
	c-1.3,0-2.6,0-3.8,0.1c-1.3,0.1-2.6,0.2-3.8,0.3c-0.3,13.9-14.3,33.6-29,54.4C293.1,239.6,270,272.1,270,306
	c0,30.9,16.2,57.9,40.3,72.6c12.9,5.3,26.9,8.2,41.6,8.2c14.7,0,28.7-2.9,41.6-8.2c24.1-14.7,40.3-41.7,40.3-72.6
	C433.9,272.1,410.7,239.6,390.3,210.8"/>
<path class="st3" d="M411.8,344c0,0-0.6,1.6-0.6,1.8c-0.1,0.3-0.1,0.4-0.1,0.5c0,0,0,0,0,0c0.1,0,0.1-0.1,0.2-0.1
	c0.1,0.1,0.1,0.1-1.3,2.1c-0.1,0.1-0.8,1.1-0.9,1.1c0-0.1-0.2-0.2,0.3-1c0.1-0.1,0.1-0.1,0.3-0.7c0-0.1,0-0.1,0.3-0.5
	c0.3-0.4,0.5-0.7,0.8-1.3c0.3-0.7,0.7-1.2,1-1.9C411.6,344.1,411.7,344,411.8,344C411.7,344,411.7,344,411.8,344 M408.3,349.5
	c0,0-0.2-0.2-0.7,0.6c-0.5,0.7-0.8,1-1.3,1.5c-0.6,0.6-1.2,1.2-1.8,1.9c0,0.1-0.1,0.1-0.1,0.2c-0.6,0.8-0.1,1.1-0.1,1.1
	c0,0,0.1,0,0.5-0.3c0.1-0.1,0.2-0.2,0.3-0.3c0.4-0.5,0.8-1,1.2-1.5c0.2-0.2,0.4-0.3,0.5-0.5c0,0,1.1-1.4,1.6-2.3
	C408.3,349.7,408.4,349.6,408.3,349.5L408.3,349.5z M415.9,322.6c-0.1-0.3-0.3-0.5-0.3-0.7c0-0.6,0-0.7-0.1-1l-0.9-1.1
	c-0.1-0.1-0.3-0.2-0.4-0.3c-0.1-0.2-0.1-0.4-0.3-0.5c0,0-0.3-0.1-0.8,0.8c-0.2,0.4-0.4,0.9-0.5,0.2c-0.1-0.5,0.1-1,0-1.5
	c-0.1-0.3-0.3-0.7-0.5-0.7c-0.3,0.1-0.4,1-0.4,1.4c0,0.2,0.2,0.4,0.2,0.7c0,0.2-0.1,0.4,0,0.7c0,0,0,0.1,0,0.1
	c0.1,0.2,0.2,0.3,0.3,0.4c0.5,0.3,0.5,0.3,0.9,1.2c0,0.1,0.1,0.5,0.1,0.8c0,0.5-0.1,0.6-0.3,0.9c-0.3,0.4-0.6,1.3,0,0.8
	c0.4-0.3,0.4-0.3,0.5,0.4c0,0.1,0,0.3,0.1,0.3c0.2,0.1,0.3,0,0.5,0c0.3-0.4,0.3-1,0.7-1.3c0.2-0.1,0.4,0.2,0.4,0.6
	c0,0.5-0.1,0.9,0,1.4c0.1,0.2,0.2,0.1,0.3,0.2c0.1,0.1,0.1,0.2,0.2,0.3c0,0,0,0,0,0c0.1-0.2,0.2-0.5,0.2-0.6c0-0.1,0-0.1-0.2-1.9
	C415.5,323.5,416,323.2,415.9,322.6 M399.8,354.1c-0.2,0-0.3,0.1-0.4,0.2c-0.2,0-0.2,0-0.3-0.1c0,0-0.1-0.1-0.1-0.1
	c-0.1,0-0.2,0-1.3,1.5c-0.1,0.1-0.4,0.6-0.3,0.6c0.1,0.1,0.6-0.2,1.2-0.6C399.1,355.1,399.9,354.2,399.8,354.1
	C399.9,354.1,399.9,354.1,399.8,354.1C399.8,354.1,399.8,354.1,399.8,354.1 M410,283.8c0,0.4,0,0.6,0.3,1.2c0.1,0.2,0.4,0.8,0.4,1.6
	c0,0.4,0,0.4-0.3,0.8c-0.2,0.2,0,0.5-0.1,0.8c0,0.2-0.1,0.3-0.4,0.3c-0.8,0-1,1.9-1,1.9c0,0.2,0.7,2,1,1.8c0.1-0.1,0-0.4,0-0.7
	c0-0.5,0-0.5,0-0.7c0.1,0,0.1,0.1,0.2,0c0.3-0.2,0.1-0.7,0.4-0.8c0.2-0.1,0.3,0.3,0.4,0.1c0.1-0.3,0-0.6,0.3-0.8
	c0.2-0.1,0.4-0.1,0.5-0.3c0.1-0.1,0.1-0.2,0.2-0.4c0,0-0.2-0.9-0.4-1.4c-0.1-0.3-0.3-0.7-0.3-1c-0.1-0.9-0.1-0.9-0.3-1.2
	C410.7,284.3,410.4,283.9,410,283.8 M409.3,280.9l-0.3,0.2c0.1,0.3,0.3,0.5,0.3,0.9c0,0.3-0.1,0.5,0,0.8c0.1,0.2,0.3,0.6,0.6,0.7
	c0-0.1,0-0.2-0.1-0.4c0-0.1-0.1-0.3,0-0.4c0-0.1,0.1-0.1,0.1-0.1c0.1,0.1,0.2,0.2,0.3,0.2c0.1,0.1,0.2,0,0.2-0.1
	c0.1-0.2,0-0.4,0.1-0.5c0-0.1,0.1-0.1,0.1-0.2c0-0.1,0-0.1-0.1-0.3c-0.1-0.2-0.2-0.3-0.2-0.3c-0.1,0-0.2-0.1-0.2-0.1
	c-0.2,0-0.3-0.1-0.5-0.2C409.6,281.2,409.5,281.1,409.3,280.9 M408.2,326.2C408.2,326.2,408.2,326.3,408.2,326.2
	c-0.2,0.2-0.3,0.4-0.5,0.5c-0.1,0.1-0.2,0.2-0.3,0.3c-0.2,0.2-0.2,0.4-0.2,0.5c0,0,0,0.1,0,0.2c0.1,0,0.1,0,0.3-0.2
	c0.2-0.2,0.3-0.4,0.5-0.6c0.2-0.1,0.3-0.2,0.5-0.4c0.1-0.1,0.2-0.3,0.2-0.4c-0.1-0.1-0.1-0.1-0.2-0.1
	C408.5,326.1,408.4,326.1,408.2,326.2 M409.2,318.2c0.2-0.1,0.3-0.3,0.3-0.6c0,0-0.1-0.1-0.1-0.1h0c-0.2,0-0.3,0.1-0.4,0.1
	c-0.2,0-0.4-0.2-0.6-0.2c-0.2,0-0.5,0.3-0.5,0.8c0,0,0,0,0.1,0c0,0,0.1,0,0.1-0.1c0.1-0.1,0.1-0.1,0.4-0.1c0.1,0,0.2,0,0.3,0.1
	C408.9,318.2,409.1,318.2,409.2,318.2 M408.3,319.3c-0.2,0.2-0.3,0.1-0.3-0.1c-0.1-0.2-0.1-0.3-0.2-0.3c0,0-0.1,0-0.2,0.2
	c-0.1,0.3-0.1,0.7-0.3,1c-0.1,0.2-0.2,0.4-0.3,0.6c0,0,0,0.1,0,0.1c0,0.3,0.1,0.5,0.1,0.7c0,0.4-0.2,0.8-0.2,1.2
	c0,0.1,0,0.2,0.1,0.2c0.2,0.2,0.3-0.5,0.4-1c0.2-0.8,0.2-1,0.4-1.1c0.1,0.5,0,1.1,0.2,1.6c0.1,0.5,0.3,0.3,0.3,0.3
	c0.1-0.1,0.1-0.3,0.1-0.4c0,0,0,0,0-0.1c0.1-0.4,0.1-0.4,0-1.9c0-0.4,0-0.4,0.3-0.8c0.2-0.3,0.3-0.4,0.3-0.7
	C408.8,318.9,408.8,318.9,408.3,319.3 M406.5,326c-0.1,0-0.2,0.1-0.3,0.2c0,0,0,0.1,0.1,0.2c0.1,0.1,0.2,0.1,0.3,0.1
	c0,0,0.2-0.1,0.2-0.2C406.7,326.1,406.6,326,406.5,326 M406,327.6c0.1-0.1,0.2-0.2,0.1-0.4c0-0.2-0.1-0.3-0.2-0.3
	c-0.1,0-0.2,0.2-0.2,0.2c0,0,0,0.3,0.1,0.4C405.9,327.5,406,327.6,406,327.6 M407.4,317.6c0-0.1,0-0.1,0-0.2c0-0.5-0.2-0.9-0.2-1.4
	c0-0.6,0.1-0.9,0.3-1.3c0.2-0.5,0.3-0.7,0.3-0.7c0,0,0-0.1,0-0.1c-0.1-0.2-0.3-0.3-0.3-0.6c-0.1-0.6-0.1-0.6-0.2-0.7
	c-0.1-0.2-0.1-0.2-0.2-0.2c-0.1,0-0.1,0-0.5,1.2c0,0.1-0.1,0.4-0.3,0.6c-0.1,0.2-0.3,0.2-0.4,0.4c-0.4,0.5-0.3,1.3-1,1.5
	c-0.1,0-0.2,0-0.2,0.1c-0.3,0.2-0.2,0.7-0.5,0.9c-0.1,0.1-0.1,0-0.2,0c-0.1-0.1-0.3-0.2-0.5,0.2c-0.2,0.4-0.2,1.1-0.2,1.5
	c0,0.1,0,0.2,0,0.3c0,0.3,0.2,0.6,0.2,0.9c0.1,1,0.1,1,0.1,1l0.6,0.3c0.2,0.1,0.4-0.2,0.6-0.1c0.2,0.1,0.2,0.4,0.4,0.5c0,0,0,0,0,0
	c0.1,0,0.5-0.2,0.5-0.2c0,0,0,0,0.4-1.5c0-0.1,0-0.1,0.5-0.8c0.2-0.3,0.1-0.7,0.2-1C407,317.9,407.3,317.8,407.4,317.6 M405.7,326
	c-0.2,0-0.4,0.2-0.6,0.2c-0.1,0-0.1-0.1-0.2,0c0,0-0.1,0-0.1,0c-0.1,0.1-0.1,0.4,0,0.5c0.1,0.1,0.2,0.1,0.3,0.1
	c0.1-0.1,0.2-0.2,0.3-0.2c0.3,0,0.3-0.1,0.3-0.2C405.8,326.4,405.9,326,405.7,326 M401.5,325.8c0,0,0,0,0.5,0c0.4,0,0.6,0.3,0.9,0.4
	c0.2,0.1,0.5,0,0.7,0.1c0.2,0,0.3,0.1,0.4,0.2c0.2,0,0.3-0.1,0.4-0.2c-0.1-0.4-0.5-0.5-0.7-0.7c0.1-0.4,0.1-0.4,0.1-0.5
	c-0.2,0-0.3,0-0.5-0.2c-0.1-0.1-0.2-0.1-0.2-0.1c-0.2-0.1-0.4,0.2-0.6,0.2c-0.5,0-0.7-0.7-1.2-0.7c-0.4,0-0.9,0.5-0.2,1.1
	C401.2,325.6,401.4,325.7,401.5,325.8 M403,321.4c-0.1-0.3-0.2-0.4-0.3-0.4c-0.6,0.1-0.7,1.4-0.4,1.7
	C402.6,323,403.2,322.1,403,321.4 M400.4,318.8c-0.1-0.3-0.8-0.9-0.9-1c-0.2-0.2-0.3-0.2-0.3-0.3c0,0-0.9-1.5-0.9-1.5
	c-0.3-0.7-0.3-0.7-0.4-0.8c0,0,0,0,0,0c0,0,0,0,0,0c-0.1,0-0.3,0-0.4,0c-0.2,0-0.2-0.3-0.4-0.3c-0.2,0.1,0,0.7,0,0.7
	c0.2,0.7,0.7,1.2,0.9,1.9c0.1,0.2,0.3,0.4,0.4,0.6c0.1,0.3,0.1,0.7,0.1,1.1c0.1,0.3,0.3,0.6,0.4,1c0,0.1,0,0.2,0,0.2
	c0.2,1.2,0.4,2.3,1.4,3.8c0.3,0,0.4,0,0.5-0.2c0.3-0.5,0.2-1,0.3-1.5c0.1-0.3,0.3-0.4,0.4-0.7c0.1-0.3-0.1-0.9-0.2-1
	c-0.2-0.1-0.3,0.5-0.4,0.3c0,0-0.1-0.1-0.1-0.1l-0.4-1.1C400.4,319.5,400.6,319.2,400.4,318.8 M389.3,311.6
	c-0.4,0.5-0.5,3.2,0.2,3.1C390.6,314.5,389.9,312.1,389.3,311.6C389.3,311.6,389.3,311.6,389.3,311.6 M370.5,330.2
	c-0.1,0-0.1,0-0.3,0.5c-0.1,0.2-0.3,0.3-0.4,0.4c-0.1,0.1-0.1,0.3-0.2,0.4c-0.1,0.3-0.2,0.5-0.7,1c-0.5,0.4-1.1,0.3-1.5,0.9
	c-0.4,0.7-0.4,1.1-0.3,1.8c0,0.3,0.1,0.6,0,0.9c-0.2,0.5-0.5,0.8-0.7,1.2c-0.2,0.4-0.2,2.3,0.3,2.7c0.4,0.4,1.3,0.1,1.6-0.5
	c0.1-0.2,0.9-2.3,0.9-2.3c0,0,0-0.1,0-0.1l1.1-3c0.1-0.4,0.1-0.8,0.2-1.1c0-0.1,0.1-0.2,0.2-0.2c0.1-0.1,0.3-0.3,0.3-0.5
	C370.8,330.2,370.8,330.2,370.5,330.2 M359.5,290.2c0,0-0.1-0.3-0.5-0.2c-0.4,0-0.9,0.4-0.5,0.7
	C358.9,291.1,359.5,290.5,359.5,290.2 M347.4,288.7c0.1-0.2,0.1-0.5,0.1-0.7c-0.4,0-0.7,0-1.1,0c-0.4,0-0.5,0.1-0.7,0.2
	c0.3,0.5,0.6,0.7,1.5,0.8C347.3,289,347.4,288.9,347.4,288.7 M343.1,287.3c0.2,0.2,0.4,0.1,0.6-0.2c0.1-0.1,0.2-0.3,0.2-0.8
	c0-0.2-0.1-0.7-0.4-0.7c-0.3,0-0.5,0.3-0.5,0.3c0,0.1,0,0.2,0,0.3c0,0.2,0,0.4,0,0.5c0,0.2-0.1,0.3,0,0.5
	C343,287.2,343.1,287.2,343.1,287.3 M343.8,284.7c0-0.1,0-0.2,0-0.3c0,0-0.1-0.1-0.2-0.1h0c-0.3,0.1-0.4,0.6-0.2,0.7
	c0,0,0.1,0,0.1,0.1C343.6,285.1,343.7,284.9,343.8,284.7 M335.8,278.1c0,0.1,0,0.2,0.2,0.2c0.2,0.1,0.4,0,0.6-0.1
	c0.2-0.1,0.4-0.2,1.2-0.2c0.6,0,0.9-0.1,1.2-0.3c0-0.4,0.4-0.6,0.3-1.1c-0.1-0.3-0.4-0.3-0.6-0.5c0,0,0,0-0.2-0.5
	c-0.2-0.5-0.6-0.8-0.8-1.1c-0.4-0.6-0.4-0.7-0.2-1c0.2-0.3,0.2-0.5,0.2-0.5c-0.1-0.3-0.3-0.1-0.5-0.2c-0.3-0.2,0.1-0.5,0.1-0.7
	c0,0-0.1,0-0.1,0c-0.1,0-0.2,0.2-0.4,0.2c-0.1,0-0.3,0-0.4,0.1c0,0-0.1,0-0.1,0c-0.3,0.2-0.6,0.6-0.6,0.6c-0.1,0.1-0.1,0.2-0.2,0.4
	c0,0.3,0,0.6,0,0.9c0.2,0.1,0.3,0.4,0.5,0.6c0.2,0.2,0.4,0.1,0.6,0.3c0,0,0.1,0.1,0.1,0.2c0.1,0.2,0.2,0.6-0.2,0.7
	c-0.1,0-0.3,0.1-0.3,0.2c-0.1,0.2-0.1,0.4-0.2,0.6c-0.1,0.1-0.2,0.3-0.2,0.4c0.1,0.2,0.4,0.3,0.3,0.5
	C336,277.9,335.9,277.9,335.8,278.1 M333.1,277.4c0.2,0.2,0.4,0.1,0.6,0.1c0,0,0.1,0,0.2-0.1c0.3-0.1,0.5-0.3,0.8-0.4
	c0.4-0.1,0.4-0.1,0.4-0.2c0,0,0.1-0.1,0.1-0.2c0.1-0.3,0-0.6,0.1-0.9c0.1-0.2,0.4-0.4,0.3-0.7c0-0.3-0.4-0.5-0.8-0.5
	c-0.1,0-0.3,0-0.4,0.1c0,0,0,0-0.1,0c-0.2,0.2-0.3,0.4-0.5,0.6c-0.2,0.1-0.4,0-0.5,0.2c0,0,0,0.1-0.1,0.1c-0.1,0.3,0.2,0.4,0.1,0.7
	c-0.1,0.3-0.4,0.4-0.5,0.8C333,277.2,333,277.3,333.1,277.4 M412.6,330.8c-0.9,2.5-1.6,3-1.8,3.1c0,0-0.9-2-0.9-2.3
	c0-0.2,0-0.2,1.1-1.9c0.3-0.4,0.4-0.8,0.2-0.9c-0.2,0.1-0.4,0.3-0.7,0.2c-0.4-0.1-0.6-0.5-0.9-0.7c0,0-0.1,0.1-0.1,0.1
	c-0.2,0.2,0,0.5-0.3,0.8c-0.2,0.2-0.7,0.1-0.9,0.3c-0.2,0.2-0.3,0.3-0.6,0.8c-0.8,1.3-0.9,1.4-1,1.4c-0.4,0.3-0.5-0.6-0.8-0.7
	c-0.8,0.2-1.7,1.4-1.7,1.4c-0.1,0.2-0.1,0.2-1.7,1.4c-0.7,0.6-0.8,1.5-1.4,2.1c-0.3,0.3-0.3,0.3-1.9,1.1c-3.3,1.7-3.3,1.7-3.9,2.4
	c-0.1,0.1-1.1,1.8-1.1,1.8c-0.7,1.5-0.9,3.2-1.7,4.7c-0.6,1-0.7,2.3-1.8,3.1c-0.2,0.2-0.5,0.4-0.5,0.6c-0.2,0.4,0,0.6,0.1,0.8
	c0.3,0.2,0.7,0,2-0.8c0.7-0.4,1.5-0.2,2.2-0.4c0.7-0.3,1.1-0.9,1.8-1.3c0,0,3-1.3,3.5-1.1c0,0,0.6,0.3,0.6,0.7
	c0,0.7-0.6,1.2-0.6,1.9c0.7-0.1,1-0.7,1.5-1c-0.6,0.7-1.7,3.4-1.7,3.5c-0.1,0.4,0.5,0.7,0.6,0.7c0.3,0,0.4-0.2,0.7-0.3
	c0,0,0,0,0.1,0.4c1.5,0,7.9-5.9,11-11.6c0.2-0.4,0.2-0.4,2.3-12.2c0.1-0.6,0.1-0.9,0.1-1.1C413.7,328.1,412.6,330.7,412.6,330.8
	 M370.2,288.6c0.2,0,1-0.1,0.9-0.8c-0.1-1-0.9-1.6-1.2-2.5c0,0,0,0,0,0c0.1-0.2,0.1-0.2,0.4-0.1c0.4,0.1,0.3-0.2,0.3-0.3
	c-0.2-0.6-0.7-0.7-1-0.5c-0.2,0.1-0.3-0.3-0.3-0.7c-0.6-0.4-0.8-0.6-1.1-0.9c-0.8-0.9-0.2-1.4,0.6-1.4c0,0,0.1-0.1,0.1-0.3
	c-0.1-1.4-1.8-1-2.9,0.3c0,0-0.3,0.4-0.2,0.7c0,0,0,0.1,0,0.1c0.1,0.2,0.3,0.3,0.4,0.5c0.2,0.3,0.1,0.6,0.3,0.8
	c0.1,0.2,0.1,0.2,1,1.1c0.3,0.3,0.7,0.7,0.7,0.9c0,0.1,0,0.2-0.1,0.3c-0.1,0.3-0.3,1.3,0,1.7C368.3,287.7,369.8,288.7,370.2,288.6
	 M363.2,284.6c0-0.4,0-0.9-2.1-2c-0.8-0.4-1.1-0.6-1.1-0.8c0.1-0.4,0.5-0.7,0.3-1.2c-0.3-0.1-1.1,0-1.4,0.4c0,0-0.3,0.5,0.2,0.6
	c0.2,0.1,0.2,0.1,0.3,0.3c-0.3,0.2-0.6,0.5-1,0.5c-0.1,0-0.3,0-0.4-0.2c-0.2-0.3-0.3-0.6-0.5-0.9c-0.4,0-0.7-0.5-1.1-0.3
	c-0.1,0-0.2,0.1-0.3,0.3c-0.1,0.1-0.7,1.4-0.7,1.4c-0.1,0.2,0,0.4,0,0.6c-0.1,0.3-0.3,0.5-0.3,0.7c0,0.1,0,0.2,0,0.2
	c0,0.4,0.4,0.6,0.4,0.9c0.1,0.4-0.6,0.4-0.4,0.7c0,0,0.3,0.3,0.5,0.2c0.2-0.1,0.2-0.5,0.5-0.6c0.3-0.2,0.7,0,1,0
	c0.6-0.1,0.9-0.7,1.5-0.8c0.6-0.1,1.1,0.2,1.8,0.5C361.7,285.6,363.2,285.2,363.2,284.6 M389.1,306.6c-1,1.9-0.1,4.4-1.2,6.3
	c-0.1,0-0.3-0.1-0.4-0.1c-1.7-3.4-2.6-8.5-3-11c-0.1,0-0.3,0-0.4,0c-1.6,1.7-2.3-2.4-3.5-3.4c-1.7-1.5-3.5,0.5-5.3-0.3
	c-0.4-0.2-0.5-0.8-0.9-1.1c-0.9,0.5-1.1,0.6-1.7,0.3c-1.1-0.6-1.5-2.1-2.6-2.8c-1.7-1-1.7-1,0.8,3.6c0.1,0,0.3,0,0.4,0
	c0.2,0.5,0.2,1,0.4,1.4c1.1,0.2,1.4,0,2.3-1.3c0.1,0,0.3,0.1,0.5,0.1c0.2,0.7,0.2,0.7,1.5,1.6c3,2-2.9,7.4-6.6,9.1
	c-1.4,0.7-3.1-3.2-3.1-3.3c-5.5-9.2-5.5-9.2-6-9c0,0.8,2.9,7.6,3.3,8.1c0.6,0.7,2.5,3.8,3.6,5.8c0.5,0.8,0.5,0.8,1,1
	c1.2-0.6,2.6-0.8,3.8-1.3c0.9,1.8-2.2,7.5-3.3,8.3c-0.1,0-4.5,3.8-3.9,7.5c0.3,1.8,0.5,6.3,0.5,6.3c-0.7,2.1-4.5,1.6-3.8,4.4
	c0.4,1.8-1.1,2.6-1.5,3.9c-0.1,0.3,0,0.7,0,1c0,0.2-0.1,0.4-0.2,0.5c0,0-1.1,2-2.4,3.2c-1.3,1.3-5.1,1.8-5.6,1.3
	c-0.1-0.1-5.2-13.4-4-15.4c0.4-0.7,0.1-3.8,0-3.8c-0.4-1.7-0.7-2.1-2.6-4.6c-1.3-1.7,0.6-3.6-0.5-5.3l-4-2c-1.8-0.1-3.2,1.2-4.9,1.2
	c-2.7,0-2.7,0-7.6-5.1c-0.2-0.2-0.5-0.5-0.6-0.8l-0.2-8.7c0.6-1.2,0.7-2.7,1.6-3.7c2.8-3.2,2.8-3.2,2.8-3.4c0-0.1,0-0.3,0-0.5
	c0.2-3.8,11.5-7.2,12.9-5.4c-0.1,1.5-0.1,1.5-0.2,2.4c0,0,2.8,2,6,2.9c0.1-0.1,0.3-0.2,0.4-0.3c0-2.1,0-2.1,8.4-0.6
	c1.3,0.2,1.7-3.4,1.1-4.7c-2.4,0-2.4,0-2.9,0c-1.8,2.1-3.2-4.3-5.2-2.4c0.2,0.4,0.2,0.4,0.9,1.1c0,0.2,0,0.4,0,0.5
	c-0.4,0.2-0.4,0.2-0.9,1.1c-0.6,0-2.3-3.5-2.3-3.5c0-0.3-0.6-0.8-4.1-3.7c-0.1,0.1-0.2,0.2-0.3,0.3c-0.1,2.7,2.9,2.2,3.6,4
	c-0.2,0-0.6,0-0.8,0.2c0.2,0.8,0.2,0.8-0.1,1.4c-0.1,0-0.3,0-0.5-0.1c0-0.1,0.1-0.3,0.1-0.5c-0.2-2.7-2.6-2.6-3.9-3.8
	c-0.1-0.1-0.2-0.3-0.3-0.3l-3.6,1.1c0,0.3-0.1,0.7-0.2,1c-0.7,0.3-2,1.5-1.9,2.5c0,0-3.2,2.2-3.7,2.6c-0.1-0.2-0.1-0.2-1.7-1.1
	c0-4.6,0-4.6,4.1-5.1c0,0,2.6-0.8-1-3.8c0.1-0.1,0.1-0.3,0.2-0.5c1.3-0.1,1.3-0.1,1.3-0.1c0-0.1,0.1-0.3,0.2-0.4c0,0,2.3-0.6,3.8-3
	c0.5-0.7,1.3,0.1,1.8-0.5c0.5-0.7-0.6-1.5-0.1-2.2c0.1-0.1,0.3-0.9,0.4-1c0.2-0.2,0.8-0.1,1.1,0c0,0.5-0.1,0.4,0,0.8l0,0.5
	c-0.7-0.1,0,0.3,0,0.4c-0.1,0.1-0.2,0.5,0.3,0.7c0.4,0.1,0.7-0.2,1.1-0.2h0c0.4,0.1,0.7,0.5,1.1,0.6h0c0,0,0.1,0,0.1,0
	c0.6-0.1,1-0.6,1.6-0.8c0.5-0.1,0.8,0.4,1.3,0.3c0.4-0.2,0.6-0.6,0.9-0.9c-0.1-1.5,0.2-2,0.3-2.1c0.3-0.4,0.5-0.3,0.8,0
	c0.2,0.2,0.4,0.3,0.5,0.2c0.2-0.2,0.2-1.1-0.5-1.3h0c-0.2,0.1-0.3,0.3-0.4,0.3c-0.2,0.1-0.3-0.3-0.2-0.5c0.1-0.2,0.4-0.1,0.5-0.2
	c0.2-0.1,0.2-0.3,0.4-0.4c0,0,0,0,0.1,0c0.3-0.2,0.9-0.2,1.1-0.1c0.5,0,1,0.1,1.2-0.4c0-0.1,0-0.1,0.1-0.2c-1.2-1.3-2.9,1.4-3.8-0.3
	c-0.2-0.3-0.2-0.5-0.2-0.7c0-0.1,0-0.1-0.1-1.2c-0.1-0.6,0.3-0.9,0.8-1.3c0.7-0.5,0.7-0.8,0.8-1.3c-0.1-0.1-0.2-0.3-0.6-0.3
	c-0.2,0-0.5,0-0.7,0.3c-0.2,0.2-0.2,0.5-0.3,0.8c-0.3,0.9-1.4,1.1-1.8,1.9c-0.5,1-0.2,1.3,0.3,1.8c0.2,0.2,0.3,0.4,0.2,0.8
	c-0.2,0.7-1.1,0.7-1.2,1.5c0,0.5,0.1,1-0.1,1.4c-0.2,0.4-0.6,0.2-0.9,0.4c-0.3,0.2-0.4,0.6-0.8,0.8c0,0-0.1,0-0.2,0
	c-0.2,0-0.3-0.2-0.5-0.2l-0.3-0.6c0.2-0.9,0.3-1.1-0.7-3c-2,1.1-2,1.1-2.1,1.1c-2.2-1.9-0.2-5,2.7-5.4c2.5-3.7,2.5-3.7,2.5-4.2
	c2-0.1,3.7-1.4,5.7-1.7c1.6,1.3,3.6,1.4,5.3,2.4c0,0.2,0.1,0.6,0.2,0.8c-0.7,0.6-0.7,0.6-2,0.3c-0.1,0.1-0.3,0.3-0.5,0.5
	c0.2,0.5,0.6,1,1,1.4c0.2,0,0.5,0,0.7-0.1c-0.1-0.2-0.3-0.5-0.4-0.7c0.4,0.1,0.9,0,1.2-0.2c0.2-0.9,0.2-0.9,1.4-1.5
	c-0.2-0.4-0.3-1-0.2-1.4c0.2,0.1,0.4,0.1,0.6,0.2c0,0.2,0.1,0.5,0.1,0.7c0.2,0.1,0.4,0.2,0.6,0.3c0.3-0.7,0.5-1,2-1.8
	c0.9,0.3,1.7-0.3,2.5-0.3c-0.1-0.2-0.2-0.5-0.3-0.7c1,0,2,0.4,3.1,0.2c-2-0.8-1.6-2.3-1.4-2.8c0.8,0.1,0.8,0.1,1.7,1.1l0.3,0.3
	c0.1,0.2,0.2,0.4,0.4,0.6c0.3,0.3,0.7,0.6,1.1,0.9c0.5,0.5,0.5,0.8,0.5,1.1c0,0.2,0.1,0.3,0.2,0.6c0.1,0,0.1,0,0.2,0
	c0.3-0.1,0.3-0.5,0.2-0.8l-0.1-0.3c-0.2-0.5-0.5-0.7-0.5-0.8c-0.2-0.2-0.4-0.4-0.7-0.6c-0.4-0.3-0.7-0.9-1.1-1.2l0-0.3l0-0.2
	l0.1-0.1c0-0.2,0.1-0.3,0.1-0.5l0.4-0.1c0-0.2,0-0.5,0-0.7c0.2-0.1,0.5-0.2,0.7-0.2c-0.1-0.2-0.3-0.4-0.4-0.6c0.4-0.5,1-0.9,1.4-1.5
	c0.2,0,0.5,0.1,0.7,0.1l0.2-0.2c0.2-0.3,0.6-0.7,1-0.9c0.1,0,6.3,1.4,7.7,1.3h0c0.7-1.5,2.1-0.7,3.5,0.1c1.5-0.6,1.5-0.6,1.9-1.7
	c3.9-1.2,5.5-0.7,6.3-0.4c0.3-0.2,0.7-0.6,0.9-0.9l0.3,0c0.2,0,0.5,0,0.7,0c-0.1-0.2-0.3-0.4-0.4-0.6l0-0.2c0.4,0.1,0.9,0.1,1.3,0.2
	c0.1-0.2,0.2-0.4,0.3-0.6c0.9,0.1,1.8,0,2.7,0.1l0.4-0.3c1.5,0.4,2.2,1,2.2,1c0,0,0,0.1,0,0.1c-0.4,0-0.9,0.1-1.3,0.3
	c1.4,1.3,4.1,1.5,4.6,3.4c1,3.7,1.9,2.3,4.6,6.7c-5.9-2.4-2.9-4.7-7.2-6.2c0.4,0.1,0.7,0.7,0.9,1.1c-0.4-0.2-0.9-0.3-1.3-0.3
	c0.7,1,1.7,1.4,2.5,2.3c-0.4,0.1-0.9,0.3-1.3,0.4c-0.2,0.3-0.6,0.7-1,0.8c0,0-1.1,2.3-0.5,4.1c0.6,1.8,2.4,4.3,2.1,6.3
	c-0.3,2.1,0.5,3.7,1.2,4.6c2.5,2.9,2.5,2.9,2.2,3.9c-1.3-2.2-1.3-2.2-1.8-2.3c2.4,4.9,1.8,6.4,1.3,6.9c-0.1-0.1-0.3-0.2-0.4-0.2
	c-1.5,2.7,3.5,5,1.1,7.1c-0.1-0.1-0.3-0.2-0.4-0.2c0,0-1.3-4-2.6-4.2c-0.1,0.1-0.2,0.2-0.3,0.3c-0.1,0-0.3-0.1-0.4-0.1
	c-0.1-0.3-0.2-0.7-0.3-1c-0.5,0.4-0.6,1.1-0.9,1.6c0,0,0.4,0.8,1.3,1.2c0.1-0.1,0.3-0.2,0.4-0.3c0.1,0.1,0.3,0.2,0.4,0.2
	c2.1,7.9,2.1,7.9,2,9.9c0,0.5-0.2,1.3-0.4,1.8c-0.6,1.3-2.1,1.4-2.8,2.6c-0.5,0.8,0.4,1.7-0.1,2.4c-0.1,0-0.3-0.1-0.4-0.1
	c-0.3-0.9,0.6-1.9-0.3-2.7c-2.1,1.2-0.8,3.3,0,4.5c2.5,3.9-0.8,6.4-1.1,6.5c0,0-0.5-3-2.2-3.4c-0.2,3.3,1.2,6.3,1.6,9.5
	c-0.1,0.1-0.3,0.2-0.4,0.2c-3.2-3.8-1-8.9-2.9-13c-0.4,0.3-0.7,0.7-1.1,0.9l-2.1-5.4c-0.1,0-0.3-0.1-0.4-0.1
	c-0.4,0.4-0.5,0.5-1.7,0.6L389.1,306.6z M309.7,359.4C309.7,359.4,309.7,359.4,309.7,359.4C309.7,359.4,309.7,359.4,309.7,359.4
	C309.7,359.4,309.7,359.4,309.7,359.4 M309.6,359.4C309.6,359.4,309.6,359.4,309.6,359.4C309.6,359.4,309.6,359.4,309.6,359.4
	C309.6,359.4,309.6,359.4,309.6,359.4 M309.7,268.1c0.5-0.6,1-1.9,0.8-2.1c-0.2-0.1-0.5,0-0.9,0.1c-1.3,0.5-1.3,0.5-1.6,0.5
	c-0.8,0.1-1.1,0.9-0.9,1c0.1,0,0.2,0,0.5-0.1c0.3-0.1,0.5-0.1,0.6-0.1c0.1,0.1,0,0.3-0.1,0.5c0,0.1-0.1,0.3-0.1,0.4
	c0,0.2,0.9,0.2,1,0.2c0,0,0.2,0,0.5-0.4C309.6,268.2,309.6,268.2,309.7,268.1 M309.3,271.2c0.3-0.4,0.5-0.8,0.4-1c0,0,0,0,0-0.1
	c-0.1-0.1-0.2,0-0.3,0c-0.4,0,0-0.6-0.4-0.6c-0.2,0-0.6,0.2-0.7,0.3c-0.3,0.3-0.3,0.6-0.5,0.9c0,0-0.1,0.1-0.1,0.1
	c-0.1,0.1-0.3,0.3-0.5,0.5c-0.2,0.3-0.9,1.3-0.7,1.5c0.1,0,0.2-0.1,0.8-0.6c0.5-0.5,1.1-1.1,1.3-1c0.1,0.1,0.1,0.4,0.2,0.3
	C308.9,271.6,309.1,271.5,309.3,271.2 M309.5,273.4c0,0,0.1-0.1,0.1-0.1c0-0.3-0.8-0.3-0.8-0.3c-0.4,0-0.5,0.2-0.7,0.3
	c0,0.1,0.1,0.4,0.5,0.5C308.7,273.8,309.1,273.9,309.5,273.4 M306.6,274.3c0,0,0.1-0.1,0.1-0.1c0-0.1-0.1-0.2-0.3-0.2h-0.1
	c-0.3,0-0.5,0.1-0.7,0.2c-0.2,0-0.4-0.1-0.5-0.1c-0.2,0.1-0.8,0.8-0.5,1C304.7,275.1,305.7,274.9,306.6,274.3 M303.7,273.2
	c0.8-0.7,1.4-1.6,2.2-2.3c0.4-0.4,0.8-0.6,1.2-0.8c0.3-0.1,0.4-0.2,0.7-0.5c0.1-0.1,0.4-0.4-0.1-0.5c0,0-0.5,0-0.9,0.3
	c0,0-1.9,1.6-2.2,1.9c-1,1-2,2-1.7,2.3C303,273.7,303.1,273.7,303.7,273.2 M330.5,259.2c-5.5,10.5-5.8,11.2-5.2,12.2
	c-0.5,0.8-0.9,1.7-1.4,2.6c-0.8-0.4-1.6-0.9-2.5-1.2c-0.1-0.3-0.1-0.6-0.2-0.8c3.6-3.1,3.6-3.1,3.7-3.6c-1.7,0.8-3.8,0.3-5.2,1.8
	c0.1-0.3,0.3-0.6,0.4-0.9c-0.2-0.2-0.6-0.4-0.8-0.5c-0.3,0.1-0.6,0.2-0.9,0.3c-0.1,0.3-0.3,0.6-0.4,0.9c0.2,0.2,0.4,0.5,0.6,0.7
	c-2.4,2.1,0.5,4.5,0.8,5.8c0.6,0.1,1.5,0,2.1-0.2c-1,1.2-5.9,2.4-5.9,2.4c0.3-0.5,0.8-1.1,1.3-1.5c-5.4,0.8-2.4,3.2-7.4,4.6
	c-2,0.7-3.8,1.7-4.5,2.4c-0.2-0.1-0.3-0.1-0.5-0.2c-0.7,2-0.7,2-0.7,2c-1.1,1.4-2.9,1.4-4.1,2.4c-1.5,1.2-0.8,3.3-2,4.6
	c-1-0.9,0.1-2.3-0.6-3.3c-0.1,0-0.3,0-0.5,0c-0.6-1.2-1.4-0.7-2.5-0.1c-1.4-0.9-1.4-0.9-1.7-0.7c-2.6,1-4,6.5-4,8.5
	c0.1,2.1,2.7-1.3,4.2-0.8c0,1.8-1.8,2.9-1.5,4.8c1.9,0.7,1.6,2,1.2,3.9c-0.1,1.1,1.8,3.9,2.5,5.1c2-1.9,2-1.9,3-2.2
	c-0.1,0.3-0.1,0.7-0.1,1c0.3-0.1,0.6-0.3,0.9-0.4c0.2,0.3,0.2,0.3,2,1.8c0.2-0.2,0.6-0.3,0.9-0.3c0.2,0.2,0.5,0.5,0.6,0.7
	c0.1,0,0.3-0.1,0.5-0.1c-0.1,1.4,1.5,3.9,2.3,4c0.6,0.1,0.9,0.2,1.6,1.2c0.4,0.7,0.9,3.2,0.9,3.2c-0.3,1.8,1.9,1.5,2.5,2.7
	c0.1,0.1,0.1,0.3,0.1,0.5c0,0,4.7,2.9,4.8,3.8c0.1,0.9,0.2,1.7-2.1,4.3c-0.2,0.2-0.6,2.2-1.1,4.6c-0.2,1.1-0.2,1.1-2.8,2
	c-1.8,0.6-1,2.6-1.8,3.7c-0.5,0.7-0.5,1.8-1.2,2.4c-0.4-0.1-0.8-0.3-1.3-0.4c0.5,0.6,1.8,2.5-0.6,2.3c-0.1,0.2-0.1,0.6-0.1,0.8
	c-0.2,0.2-0.5,0.4-0.8,0.5c0.2,0.2,0.4,0.5,0.7,0.6c-0.3,0.6-0.1,1.2-0.4,1.7c2.1,4.3,2.1,4.3,3,5.1c-0.1,0.1-0.1,0.3-0.2,0.4
	c0,0-0.1,0-0.1,0c0,0,0,0,0,0c0,0,0,0,0,0c-0.1-0.1-0.2-0.1-0.3-0.1c-0.1,0-0.2,0-0.3-0.1c-2.7-2.1-2.7-2.1-5-6.7
	c0.2-0.4,0.3-0.6-0.2-1.2c0,0.1,0,0.3,0,0.4c0,0-1.4-3.2-1.4-3.9l-1.7-11.8c0-0.1-4.8-9.5-4.8-9.6c0,0,0-5.3,0.5-5.6
	c1.4-1.1,1.5-4,1-5.7l-5.7-9.8c-0.3,0.1-0.6,0.2-0.9,0.2c-2.6-3.1-3.1-8-1.5-14.6c-0.1-0.1-0.2-0.3-0.3-0.4
	c-1.2,2.1-0.5,4.6-1.7,6.7c-0.6-3.1,1.4-9.8,2.2-12.8c2.9-9.4,10.2-18.1,10.2-18.1c8.1-7.9,15.1-12.9,15.9-14
	c-0.1,0-0.7,0.5-1.6,0.6c-0.5,0.1-1.1-0.5-1.6-0.2c-0.7,0.4-1.6,1.5-2.2,1.6c-0.3,0-0.5-1.3-0.8-1.2c-0.8,0.1-1.4,0.2-1.4,0.2
	c0.2-0.5,1.9-5.6,4.6-5.5c0.4-0.4,1-1,1.4-1.3c0.3,0.1,0.6,0.1,0.9,0.2c2.6-1.5,9.8-1.1,11.8-1.1c0.2,0.2,0.4,0.5,0.6,0.7l-0.3,0.4
	c-0.2,0.5-0.3,1.1-0.4,1.6l0,0c0,0,0,0,0,0c-0.1,0.2-0.2,0.6-0.2,0.8c0.6,0.1,1.3,0.1,1.9,0.1v0l0.6,0.1c-0.2,0.2-0.5,0.5-0.7,0.7
	c0.5,0.2,1.1,0.6,1.3,1c1.7-1.1,1.7-1.1,2.5-1.8c-0.3-0.1-0.7-0.1-1-0.2c0.9-0.6,1.5-1,4.1-1.6c0.2,0.2,0.3,0.6,0.3,0.9
	c-0.3,0.4-0.5,1.1-0.4,1.6c0.5-0.2,1.2-0.4,1.8-0.3c-1.8,0.8-3,2.2-4.8,3c-0.2-0.1-0.5-0.3-0.8-0.5c0,0,0,0-0.6,0.6
	c0.1,0.2,0.3,0.5,0.4,0.8l0.9,0c0.5-0.3,1.3-0.5,1.8-0.5c-0.2,0.2-0.5,0.6-0.7,0.8c1.2-0.6,2-1.6,3.1-2.3c0.2-0.9,0.4-2.2,2.8-1.6
	c-0.2,0.2-0.5,0.5-0.7,0.8c0.9-0.6,0.9-0.6,2.7-1.2v0l-0.1,0.3c-1.6,2.1-4.6,2.9-6.1,5.1c8.6-4,8.6-4,8.8-4c0.1,0.2,0.3,0.5,0.4,0.8
	c-0.7,1.2-0.8,2.7-1.7,3.9c0.2,0.7,0.8,2.7-2.5,2.9c0.1-0.3,0.1-0.7,0.2-1l-0.6,0.3c-0.7,0.9-1.1,2.1-2.1,2.8
	c-0.3-0.1-0.6-0.3-0.8-0.4c-0.1,0.3-0.3,0.6-0.5,0.8c-0.3,0-0.7,0-1-0.1c-0.1-0.3-0.3-0.6-0.4-0.8c0.3-0.5,0.5-1.3,0.5-1.8
	c-0.3-0.1-0.6-0.3-0.9-0.4c5.6-2.6,5.6-2.6,5.4-4.1c-0.3-0.1-0.6-0.2-0.9-0.2c-3.4,2.5-3.5,2.6-5.8,2.8c-0.6,1.7-0.6,1.7-1.4,2.4
	c-0.5-0.3-1.2-0.4-1.8-0.4c0.4-0.4,0.9-0.9,1.3-1.3c-9.5,3.9-9.5,3.9-11,6.1c0.5,1.1,0,2.3,0.7,3.4c-1.6,1.5-1.6,1.5-2.9,2.8
	c0.1,0.3,0.3,0.6,0.5,0.8c3.7-2.7,8-6.1,12.9-10.1c0.4-0.3,1.3,0.3,1.9,0.3c-0.4,1.5-1.8,2.6-1.9,4.3
	C330.2,259.2,330.2,259.2,330.5,259.2 M305.8,354.4C305.8,354.4,305.8,354.4,305.8,354.4C305.8,354.4,305.9,354.4,305.8,354.4
	c0.1,0,0.1,0,0.1,0C305.8,354.4,305.8,354.4,305.8,354.4L305.8,354.4C305.8,354.4,305.8,354.4,305.8,354.4"/>
</svg>
